<svg xmlns="http://www.w3.org/2000/svg" viewBox="0 0 900 675" role="img" aria-labelledby="title desc">
  <title id="title">Field sensing dashboard</title>
  <desc id="desc">Blue illustration connecting field sensors to a research dashboard.</desc>
  <defs>
    <linearGradient id="bg" x1="0" x2="1" y1="0" y2="1">
      <stop offset="0" stop-color="#dcefff"/>
      <stop offset="0.55" stop-color="#f8fcff"/>
      <stop offset="1" stop-color="#b7d8f1"/>
    </linearGradient>
  </defs>
  <rect width="900" height="675" fill="url(#bg)"/>
  <path d="M72 470c104-96 186-128 284-76 92 48 162 16 244-66 62-62 124-80 228-18v214H72z" fill="#c8e3f7"/>
  <path d="M72 470c104-96 186-128 284-76 92 48 162 16 244-66 62-62 124-80 228-18" fill="none" stroke="#236fae" stroke-width="12" stroke-linecap="round"/>
  <rect x="112" y="92" width="346" height="244" rx="28" fill="#ffffff" stroke="#b6d5ed" stroke-width="4"/>
  <rect x="154" y="138" width="118" height="144" rx="18" fill="#164b79"/>
  <rect x="298" y="166" width="36" height="116" rx="12" fill="#6db4e8"/>
  <rect x="354" y="128" width="36" height="154" rx="12" fill="#4f8fcf"/>
  <path d="M172 238c38-52 70-58 98-22" fill="none" stroke="#ffffff" stroke-width="10" stroke-linecap="round"/>
  <rect x="544" y="96" width="220" height="220" rx="28" fill="#164b79"/>
  <circle cx="654" cy="206" r="58" fill="#6db4e8"/>
  <path d="M654 148v58l42 28" fill="none" stroke="#ffffff" stroke-width="12" stroke-linecap="round" stroke-linejoin="round"/>
  <g fill="#164b79">
    <circle cx="230" cy="430" r="17"/>
    <circle cx="438" cy="416" r="17"/>
    <circle cx="652" cy="318" r="17"/>
  </g>
  <g fill="none" stroke="#4f8fcf" stroke-width="7" opacity="0.8">
    <circle cx="230" cy="430" r="42"/>
    <circle cx="438" cy="416" r="48"/>
    <circle cx="652" cy="318" r="54"/>
  </g>
  <path d="M230 430l208-14 214-98" fill="none" stroke="#6db4e8" stroke-width="9" stroke-linecap="round" stroke-dasharray="1 22"/>
</svg>
