<svg xmlns="http://www.w3.org/2000/svg" viewBox="0 0 900 520" role="img" aria-labelledby="title">
  <title id="title">Quantum embedding</title>
  <rect width="900" height="520" fill="#efe4d2"/>
  <g stroke="#b8c3ce" stroke-width="4">
    <path d="M160 180 H740 M160 260 H740 M160 340 H740"/>
    <path d="M230 130 V390 M350 130 V390 M470 130 V390 M590 130 V390 M710 130 V390"/>
  </g>
  <rect x="310" y="155" width="280" height="210" rx="18" fill="#f7f2ea" stroke="#cc0033" stroke-width="10"/>
  <g fill="#0d2640">
    <circle cx="230" cy="180" r="18"/><circle cx="350" cy="180" r="18"/><circle cx="470" cy="180" r="18"/><circle cx="590" cy="180" r="18"/><circle cx="710" cy="180" r="18"/>
    <circle cx="230" cy="260" r="18"/><circle cx="350" cy="260" r="18"/><circle cx="470" cy="260" r="18"/><circle cx="590" cy="260" r="18"/><circle cx="710" cy="260" r="18"/>
    <circle cx="230" cy="340" r="18"/><circle cx="350" cy="340" r="18"/><circle cx="470" cy="340" r="18"/><circle cx="590" cy="340" r="18"/><circle cx="710" cy="340" r="18"/>
  </g>
</svg>
